<?xml version="1.0" encoding="utf-8"?>
<!-- Generator: Adobe Illustrator 24.1.0, SVG Export Plug-In . SVG Version: 6.00 Build 0)  -->
<svg version="1.1" id="Layer_1" xmlns="http://www.w3.org/2000/svg" xmlns:xlink="http://www.w3.org/1999/xlink" x="0px" y="0px"
	 viewBox="0 0 521.8 198" style="enable-background:new 0 0 521.8 198;" xml:space="preserve">
<style type="text/css">
	.st0{fill-rule:evenodd;clip-rule:evenodd;fill:url(#SVGID_1_);}
	.st1{fill:#58595B;}
	.st2{fill:#006BB6;}
</style>
<linearGradient id="SVGID_1_" gradientUnits="userSpaceOnUse" x1="1.351427e-05" y1="198.047" x2="1" y2="198.047" gradientTransform="matrix(129.845 -129.845 -129.845 -129.845 25748.4395 25880.0996)">
	<stop  offset="0" style="stop-color:#006BB6"/>
	<stop  offset="7.747682e-02" style="stop-color:#006FBA"/>
	<stop  offset="0.2062" style="stop-color:#007DC3"/>
	<stop  offset="0.3702" style="stop-color:#0096D5"/>
	<stop  offset="0.5522" style="stop-color:#3ABCED"/>
	<stop  offset="1" style="stop-color:#3ABCED"/>
</linearGradient>
<path class="st0" d="M23.7,144.4c3.1,0.8,6.1,0.9,9.1,0.1c1-0.2,2-0.5,3-1.1c1.6-0.4,3.2-1.1,4.8-2c2.9-1.8,5.9-4,8.7-6.7
	c2.1-2,4.2-4.5,6.1-7.3c1.5-1.7,2.9-3.6,4.2-5.6c1.3-1.9,2.7-4,4-6c-2.4-0.3-4.8-0.6-7.2-0.8c-2.4-0.2-4.8-0.4-7-0.4
	c-3.4-0.3-6.6-0.3-9.5,0c-3.9,0.5-7.5,1.3-10.7,2.4c-1.7,0.6-3.3,1.4-4.6,2.4c-1.1,0.4-2,0.9-2.8,1.6c-2.5,1.8-4.4,4.2-5.8,7.1
	c-1,1.6-1.7,3.5-2.1,5.7c-0.1,0.3-0.1,0.6-0.1,0.9l0.1,0.2l0.1,0.1l0.1,0l0.1-0.1c0.5-1,1.1-2,1.8-2.8c0.4-0.7,0.8-1.3,1.4-1.8
	c1.7-1.6,3.7-3,5.9-4.1c2.3-1,4.8-1.8,7.4-2.5c2.6-0.2,5.2-0.4,7.8-0.7c3.2-0.1,6.4,0,9.8,0.2c-2,2.7-4.1,5.3-6.2,7.7
	c-1.9,1.8-3.7,3.6-5.5,5.5c-2.2,1.6-4.5,2.9-6.7,4.1c-2.3,1-4.6,1.6-6.9,1.8c-0.8,0.1-1.5,0-2.3-0.1c-1.1,0-2.2-0.2-3.3-0.4l-0.2,0
	l0,0.1l0,0.1l0.1,0.2c0.2,0.2,0.5,0.4,0.7,0.5C19.9,143.4,21.8,144.1,23.7,144.4 M23.2,86.7c1.5,0.9,3.1,1.5,4.8,2
	c3.4,0.8,7,1.3,10.9,1.4c2.9,0.1,6.1-0.2,9.5-0.8c2.2-0.2,4.6-0.5,7-1c2.3-0.4,4.7-0.9,7.1-1.5l-5.3-1.9l5.3,1.9
	c-1.5-2-3-3.8-4.5-5.7c-1.6-1.9-3.1-3.6-4.7-5.2c-2.2-2.6-4.4-4.9-6.7-6.7c-3.1-2.4-6.2-4.4-9.3-5.9c-1.7-0.8-3.3-1.3-5-1.6
	c-1-0.5-2-0.8-3.1-0.9c-3.1-0.5-6.1-0.2-9.1,0.9c-1.9,0.5-3.7,1.3-5.5,2.6c-0.2,0.1-0.5,0.3-0.7,0.6l-0.1,0.2l0,0.1l0,0.1l0.2,0
	c1.1-0.4,2.2-0.6,3.3-0.7c0.7-0.2,1.5-0.3,2.3-0.3c2.3,0.1,4.7,0.5,7.1,1.2c2.3,0.9,4.7,2.1,7,3.4c2,1.7,4,3.3,6,5
	c2.3,2.2,4.6,4.6,6.8,7.1c-3.4,0.5-6.6,0.8-9.8,1.1c-2.6,0-5.2-0.1-7.8,0c-2.7-0.5-5.2-1.1-7.6-1.9c-2.3-0.9-4.4-2.2-6.2-3.6
	c-0.6-0.5-1.1-1-1.5-1.7c-0.8-0.8-1.5-1.7-2-2.7l-0.1-0.1l-0.1,0l-0.1,0.1l-0.1,0.2c0,0.3,0,0.6,0.2,0.9c0.6,2.1,1.4,3.9,2.5,5.5
	c1.6,2.7,3.7,4.9,6.4,6.6C21.1,86,22.1,86.5,23.2,86.7z M75.9,61.6c1.9,1.3,4,2.7,6,4c0.3-2.4,0.6-4.8,0.8-7.2
	c0.2-2.4,0.4-4.8,0.4-7c0.3-3.4,0.3-6.6,0-9.5c-0.5-3.9-1.3-7.5-2.4-10.7c-0.6-1.7-1.4-3.3-2.4-4.6c-0.4-1.1-0.9-2-1.6-2.8
	c-1.8-2.5-4.2-4.4-7.1-5.8c-1.6-1-3.5-1.7-5.7-2.1c-0.3-0.1-0.6-0.1-0.9-0.1L63,15.9l-0.1,0.1l0,0.1l0.1,0.1c1,0.5,2,1.1,2.8,1.8
	c0.7,0.4,1.3,0.8,1.8,1.4c1.6,1.7,3,3.7,4.1,5.9c1,2.3,1.8,4.8,2.5,7.4c0.2,2.6,0.4,5.2,0.7,7.8c0.1,3.2,0,6.4-0.2,9.8
	c-2.7-2-5.3-4.1-7.7-6.2c-1.8-1.9-3.6-3.7-5.5-5.5c-1.6-2.2-2.9-4.5-4.1-6.7c-1-2.3-1.6-4.6-1.8-6.9c-0.1-0.8,0-1.5,0.1-2.3
	c0-1.1,0.2-2.2,0.4-3.3l0-0.2l-0.1,0l-0.1,0l-0.2,0.1c-0.2,0.2-0.4,0.5-0.5,0.7c-1.1,1.9-1.8,3.8-2.1,5.7c-0.8,3.1-0.9,6.1-0.1,9.1
	c0.2,1,0.5,2,1.1,3c0.4,1.6,1.1,3.2,2,4.8c1.8,2.9,4,5.9,6.7,8.7c2,2.1,4.5,4.2,7.3,6.1C72,58.8,73.9,60.2,75.9,61.6z M112.3,22.1
	c-0.6,0.8-1,1.8-1.3,2.9c-0.8,1.5-1.5,3.1-2,4.8c-0.8,3.4-1.3,7-1.4,10.9c-0.1,2.9,0.2,6.1,0.8,9.5c0.2,2.2,0.5,4.6,1,7
	c0.4,2.3,0.9,4.7,1.5,7.1c2-1.5,3.8-3,5.7-4.5c1.9-1.6,3.6-3.1,5.2-4.7c2.6-2.2,4.9-4.4,6.7-6.7c2.4-3.1,4.4-6.2,5.9-9.3
	c0.8-1.7,1.3-3.3,1.6-5c0.5-1,0.8-2,0.9-3.1c0.5-3.1,0.2-6.1-0.9-9.1c-0.5-1.9-1.3-3.7-2.6-5.5c-0.1-0.2-0.3-0.5-0.6-0.7l-0.2-0.1
	h-0.1l-0.1,0l0,0.2c0.4,1.1,0.6,2.2,0.7,3.3c0.2,0.7,0.3,1.5,0.3,2.3c-0.1,2.3-0.5,4.7-1.2,7.1c-0.9,2.3-2.1,4.7-3.4,7
	c-1.7,2-3.3,4-5,6c-2.2,2.3-4.6,4.6-7.1,6.8c-0.5-3.4-0.8-6.6-1.1-9.8c0-2.6,0.1-5.2,0-7.8c0.5-2.7,1.1-5.2,1.9-7.6
	c0.9-2.3,2.2-4.4,3.6-6.2c0.5-0.6,1-1.1,1.7-1.5c0.8-0.8,1.7-1.5,2.7-2l0.1-0.1l0-0.1l-0.1-0.1l-0.2-0.1c-0.3,0-0.6,0-0.9,0.2
	c-2.1,0.6-3.9,1.4-5.5,2.5C116.1,17.3,113.9,19.4,112.3,22.1z M172.2,55.1c-3.1-0.8-6.1-0.9-9.1-0.1c-1,0.2-2,0.5-3,1.1
	c-1.6,0.4-3.2,1.1-4.8,2c-2.9,1.8-5.9,4-8.7,6.7c-2.1,2-4.2,4.5-6.1,7.3c-1.4,1.7-2.9,3.6-4.2,5.6c-1.3,1.9-2.7,4-4,6
	c2.4,0.3,4.8,0.6,7.2,0.8c2.4,0.2,4.8,0.4,7,0.4c3.4,0.3,6.6,0.3,9.5,0c3.9-0.5,7.5-1.3,10.7-2.4c1.7-0.6,3.3-1.4,4.6-2.4
	c1.1-0.4,2-0.9,2.8-1.6c2.5-1.8,4.4-4.2,5.8-7.1c1-1.6,1.7-3.5,2.1-5.7c0.1-0.3,0.1-0.6,0.1-0.9l-0.1-0.2l-0.1-0.1l-0.1,0l-0.1,0.1
	c-0.5,1-1.1,2-1.8,2.8c-0.4,0.7-0.8,1.3-1.4,1.8c-1.7,1.6-3.7,3-5.9,4.1c-2.3,1-4.8,1.8-7.4,2.5c-2.6,0.2-5.2,0.4-7.8,0.7
	c-3.2,0.1-6.4,0-9.8-0.2c2-2.7,4.1-5.3,6.2-7.7c1.9-1.8,3.7-3.6,5.5-5.5c2.2-1.6,4.5-2.9,6.7-4.1c2.3-1,4.6-1.6,6.9-1.8
	c0.8-0.1,1.5,0,2.3,0.1c1.1,0,2.2,0.2,3.3,0.4l0.2,0l0-0.1l0-0.1l-0.1-0.2c-0.2-0.2-0.5-0.4-0.7-0.5C176,56.1,174.1,55.4,172.2,55.1
	z M155.8,36.8l-0.2,0l0-0.2c-0.5-4.2-2-8.3-4.6-12.2l-0.2-0.1l-0.2,0l-0.1,0.1c0,0.2,0,0.5,0.1,0.7c0.4,2.4,0.3,4.9-0.1,7.4
	c-0.4,1.9-0.9,3.7-1.4,5.6c-0.9,2-1.9,4-3,6c-3,4.7-7,9.5-11.8,14.1c-1.5,1.4-3,2.8-4.5,4.3c-1.2,1.3-2.7,2.6-4.3,3.8
	c-2.9,2.1-5.8,4.3-8.7,6.5c-3.8,2.8-7.8,5.5-12,8.2c-1.5-4.8-2.8-9.5-3.9-14c-0.8-3.5-1.6-7.1-2.5-10.6c-0.4-2-0.7-3.9-0.8-5.7
	c-0.2-2.1-0.4-4.1-0.7-6.1c-0.7-6.7-0.7-12.8,0-18.4c0.5-2.2,1-4.4,1.5-6.5c0.8-1.8,1.6-3.5,2.5-5.2c1.2-2.2,2.8-4.1,4.6-5.7
	c0.2-0.1,0.4-0.3,0.5-0.5l0-0.1L105.9,8l-0.2,0c-4.5,1.4-8.3,3.5-11.4,6.4l-0.2,0.1L94,14.4C90.7,11.8,86.7,10,82.1,9L81.9,9
	l-0.1,0.1l0,0.1c0.1,0.2,0.3,0.3,0.5,0.4c2,1.5,3.7,3.2,5.1,5.3c1,1.6,2,3.2,3,5c0.8,2.1,1.5,4.2,2.1,6.4c1.2,5.5,1.8,11.6,1.6,18.3
	c-0.1,2.1-0.1,4.1-0.2,6.2c0.1,1.8-0.1,3.7-0.3,5.8c-0.5,3.6-1,7.1-1.5,10.7c-0.7,4.6-1.6,9.4-2.7,14.3c-4.4-2.3-8.7-4.7-12.7-7.2
	c-3.1-1.9-6.1-3.9-9.2-5.7c-1.7-1.1-3.3-2.2-4.6-3.5c-1.6-1.3-3.2-2.6-4.8-3.9c-5.2-4.2-9.6-8.6-13-13c-1.3-1.9-2.5-3.8-3.5-5.7
	c-0.7-1.8-1.3-3.7-1.9-5.5c-0.7-2.4-0.9-4.9-0.8-7.3c0.1-0.2,0.1-0.5,0-0.7l-0.1-0.1l-0.1,0l-0.2,0.1c-2.2,4.1-3.4,8.3-3.5,12.6
	l0,0.2l-0.2,0c-4.2,0.5-8.3,2-12.2,4.6l-0.1,0.2l0,0.2l0.1,0.1c0.2,0,0.5,0,0.7-0.1c2.4-0.4,4.9-0.3,7.4,0.1
	c1.9,0.4,3.7,0.9,5.6,1.4c2,0.9,4,1.9,6,3c4.7,3,9.5,7,14.1,11.8c1.4,1.5,2.8,3,4.3,4.5c1.3,1.2,2.6,2.7,3.8,4.3
	c2.1,2.9,4.3,5.8,6.5,8.7c2.8,3.8,5.5,7.8,8.2,12c-4.8,1.5-9.5,2.8-14,3.9c-3.5,0.8-7.1,1.6-10.6,2.5c-2,0.4-3.9,0.7-5.7,0.8
	c-2.1,0.2-4.1,0.4-6.1,0.7c-6.7,0.7-12.8,0.7-18.4,0c-2.2-0.5-4.4-1-6.5-1.5c-1.8-0.8-3.5-1.6-5.2-2.5c-2.2-1.2-4.1-2.8-5.7-4.6
	c-0.1-0.2-0.3-0.4-0.5-0.5l-0.1,0l-0.1,0.1l0,0.2c1.4,4.5,3.5,8.3,6.4,11.4l0.1,0.2l-0.1,0.2c-2.6,3.3-4.4,7.3-5.4,11.9l0.1,0.2
	l0.1,0.1l0.1,0c0.2-0.1,0.3-0.3,0.4-0.5c1.5-2,3.2-3.7,5.3-5.1c1.6-1,3.2-2,5-3c2.1-0.8,4.2-1.5,6.4-2.1c5.5-1.2,11.6-1.8,18.3-1.6
	c2.1,0.1,4.1,0.1,6.2,0.2c1.8-0.1,3.7,0.1,5.8,0.3c3.6,0.5,7.1,1,10.7,1.5c4.6,0.7,9.4,1.6,14.3,2.7c-2.3,4.4-4.7,8.7-7.2,12.7
	c-1.9,3.1-3.9,6.1-5.7,9.2c-1.1,1.7-2.2,3.3-3.5,4.6c-1.3,1.6-2.6,3.2-3.9,4.8c-4.2,5.2-8.6,9.6-13,13c-1.9,1.3-3.8,2.5-5.7,3.5
	c-1.8,0.7-3.7,1.3-5.5,1.9c-2.4,0.7-4.9,0.9-7.3,0.8c-0.2-0.1-0.5-0.1-0.7,0l-0.1,0.1l0,0.2l0.1,0.2c4.1,2.2,8.3,3.4,12.6,3.5l0.2,0
	l0,0.2c0.5,4.2,2,8.3,4.6,12.2l0.2,0.1l0.2,0l0.1-0.1c0-0.2,0-0.5-0.1-0.7c-0.4-2.4-0.3-4.9,0.1-7.4c0.4-1.9,0.9-3.7,1.4-5.6
	c0.9-2,1.9-4,3-6c3-4.7,7-9.5,11.8-14.1c1.5-1.4,3-2.8,4.5-4.3c1.2-1.3,2.7-2.6,4.3-3.9c2.9-2.1,5.8-4.3,8.7-6.5
	c3.8-2.8,7.8-5.5,12-8.2c1.5,4.8,2.8,9.5,3.9,14c0.8,3.5,1.6,7.1,2.5,10.6c0.4,2,0.7,3.9,0.8,5.7c0.2,2.1,0.4,4.1,0.7,6.1
	c0.7,6.7,0.7,12.8,0,18.4c-0.5,2.2-1,4.4-1.5,6.5c-0.8,1.8-1.6,3.5-2.5,5.2c-1.2,2.2-2.8,4.1-4.6,5.7c-0.2,0.1-0.4,0.3-0.5,0.5
	l0,0.1l0.1,0.1l0.2,0c4.5-1.4,8.3-3.5,11.4-6.4l0.2-0.1l0.2,0.1c3.3,2.6,7.3,4.4,11.9,5.4l0.2-0.1l0.1-0.1l0-0.1
	c-0.1-0.2-0.3-0.3-0.5-0.4c-2-1.4-3.7-3.2-5.1-5.3c-1-1.6-2-3.2-3-5c-0.8-2.1-1.4-4.2-2.1-6.4c-1.2-5.5-1.8-11.6-1.6-18.3
	c0.1-2.1,0.1-4.1,0.2-6.2c-0.1-1.8,0.1-3.7,0.3-5.8c0.5-3.6,1-7.1,1.5-10.7c0.7-4.6,1.6-9.4,2.7-14.3c4.4,2.3,8.7,4.7,12.7,7.2
	c3.1,1.9,6.1,3.9,9.2,5.7c1.7,1.1,3.3,2.2,4.6,3.5c1.6,1.3,3.2,2.6,4.8,3.9c5.2,4.2,9.6,8.6,13,13c1.3,1.9,2.5,3.8,3.5,5.7
	c0.7,1.8,1.3,3.7,1.9,5.5c0.7,2.4,0.9,4.9,0.8,7.3c-0.1,0.2-0.1,0.5,0,0.7l0.1,0.1l0.2,0l0.2-0.1c2.2-4.1,3.4-8.3,3.5-12.6l0-0.2
	l0.2,0c4.2-0.5,8.3-2,12.2-4.6l0.1-0.2l0-0.2l-0.1-0.1c-0.2,0-0.5,0-0.7,0.1c-2.4,0.4-4.9,0.3-7.4-0.1c-1.9-0.4-3.7-0.9-5.6-1.4
	c-2-0.9-4-1.9-6-3c-4.7-3-9.5-7-14.1-11.8c-1.4-1.5-2.8-3-4.3-4.5c-1.3-1.2-2.6-2.7-3.8-4.3c-2.1-2.9-4.3-5.8-6.5-8.7
	c-2.8-3.8-5.5-7.8-8.2-12c4.8-1.5,9.5-2.8,14-3.9c3.5-0.8,7.1-1.6,10.6-2.5c2-0.4,3.9-0.7,5.7-0.8c2.1-0.2,4.1-0.4,6.1-0.7
	c6.7-0.7,12.8-0.7,18.4,0c2.2,0.5,4.4,1,6.5,1.5c1.8,0.8,3.5,1.6,5.2,2.5c2.2,1.2,4.1,2.8,5.7,4.6c0.1,0.2,0.3,0.4,0.5,0.5l0.1-0.1
	l0.1-0.1l0-0.2c-1.4-4.5-3.5-8.3-6.4-11.4l-0.1-0.2l0.1-0.2c2.6-3.3,4.4-7.3,5.4-11.9l-0.1-0.2l-0.1-0.1l-0.1,0
	c-0.2,0.1-0.3,0.3-0.4,0.5c-1.5,2-3.2,3.7-5.3,5.1c-1.6,1-3.2,2-5,3c-2.1,0.8-4.2,1.5-6.4,2.1c-5.5,1.2-11.6,1.8-18.3,1.6
	c-2.1-0.1-4.1-0.1-6.2-0.2c-1.8,0.1-3.7-0.1-5.8-0.3c-3.6-0.5-7.1-1-10.7-1.5c-4.6-0.7-9.4-1.6-14.3-2.7c2.3-4.4,4.7-8.7,7.2-12.7
	c1.9-3.1,3.9-6.1,5.7-9.2c1.1-1.7,2.2-3.3,3.5-4.6c1.3-1.6,2.6-3.2,3.9-4.8c4.2-5.2,8.6-9.6,13-13c1.9-1.3,3.8-2.5,5.7-3.6
	c1.8-0.7,3.7-1.3,5.5-1.9c2.4-0.7,4.9-0.9,7.3-0.8c0.2,0.1,0.5,0.1,0.7,0l0.1-0.1l0-0.1l-0.1-0.2C164.2,38.1,160,37,155.8,36.8z
	 M172.7,112.8c-1.5-0.8-3.1-1.5-4.8-2c-3.4-0.8-7-1.3-10.9-1.4c-2.9-0.1-6.1,0.2-9.5,0.8c-2.2,0.2-4.6,0.5-7,1
	c-2.3,0.4-4.7,0.9-7.1,1.5l5.3,1.9l-5.3-1.9c1.5,2,3,3.8,4.5,5.7c1.6,1.9,3.1,3.6,4.7,5.2c2.2,2.6,4.4,4.9,6.7,6.7
	c3.1,2.4,6.2,4.4,9.3,5.9c1.7,0.8,3.3,1.3,5,1.6c1,0.5,2,0.8,3.1,0.9c3.1,0.5,6.1,0.2,9.1-0.9c1.9-0.5,3.7-1.3,5.5-2.6
	c0.2-0.1,0.5-0.3,0.7-0.6l0.1-0.2v-0.1l0-0.1l-0.2,0c-1.1,0.4-2.2,0.6-3.3,0.7c-0.7,0.2-1.5,0.3-2.3,0.3c-2.3-0.1-4.7-0.5-7.1-1.2
	c-2.3-0.9-4.7-2.1-7-3.4c-2-1.7-4-3.3-6-5c-2.3-2.2-4.6-4.6-6.8-7.1c3.4-0.5,6.6-0.8,9.8-1.1c2.6,0,5.2,0.1,7.8,0
	c2.7,0.5,5.2,1.1,7.6,1.9c2.3,0.9,4.4,2.2,6.2,3.6c0.6,0.5,1.1,1,1.5,1.7c0.8,0.8,1.5,1.7,2,2.7l0.1,0.1l0.1,0l0.1-0.1l0.1-0.2
	c0-0.3,0-0.6-0.2-0.9c-0.6-2.1-1.4-3.9-2.5-5.5c-1.6-2.7-3.7-4.9-6.4-6.6C174.8,113.5,173.8,113.1,172.7,112.8z M120,137.9
	c-1.9-1.3-4-2.7-6-4c-0.3,2.4-0.6,4.8-0.8,7.2c-0.2,2.4-0.4,4.8-0.4,7c-0.3,3.4-0.3,6.6,0,9.5c0.5,3.9,1.3,7.5,2.4,10.7
	c0.6,1.7,1.4,3.3,2.4,4.6c0.4,1.1,0.9,2,1.6,2.8c1.8,2.5,4.2,4.4,7.1,5.8c1.6,1,3.5,1.7,5.7,2.1c0.3,0.1,0.6,0.1,0.9,0.1l0.2-0.1
	l0.1-0.1l0-0.1l-0.1-0.1c-1-0.5-2-1.1-2.8-1.8c-0.7-0.4-1.3-0.8-1.8-1.4c-1.6-1.7-3-3.7-4.1-5.9c-1-2.3-1.8-4.8-2.5-7.4
	c-0.2-2.6-0.4-5.2-0.7-7.8c-0.1-3.2,0-6.4,0.2-9.8c2.7,2,5.3,4.1,7.7,6.2c1.8,1.9,3.6,3.7,5.5,5.5c1.6,2.2,2.9,4.5,4.1,6.7
	c1,2.3,1.6,4.6,1.8,6.9c0.1,0.8,0,1.5-0.1,2.3c0,1.1-0.2,2.2-0.4,3.3l0,0.2l0.1,0l0.1,0l0.2-0.1c0.2-0.2,0.4-0.5,0.5-0.7
	c1.1-1.9,1.8-3.8,2.1-5.7c0.8-3.1,0.9-6.1,0.1-9.1c-0.2-1-0.5-2-1.1-3c-0.4-1.6-1.1-3.2-2-4.8c-1.8-2.9-4-5.9-6.7-8.7
	c-2-2.1-4.5-4.2-7.3-6.1C123.9,140.7,122,139.3,120,137.9z M83.6,177.4c0.6-0.8,1-1.8,1.3-2.9c0.9-1.5,1.5-3.1,2-4.8
	c0.8-3.4,1.3-7,1.4-10.9c0.1-2.9-0.2-6.1-0.8-9.5c-0.2-2.2-0.5-4.6-1-7c-0.4-2.3-0.9-4.7-1.5-7.1c-2,1.5-3.8,3-5.7,4.5
	c-1.9,1.6-3.6,3.1-5.2,4.7c-2.6,2.2-4.9,4.4-6.7,6.7c-2.4,3.1-4.4,6.2-5.9,9.3c-0.8,1.7-1.3,3.3-1.6,5c-0.5,1-0.8,2-0.9,3.1
	c-0.5,3.1-0.2,6.1,0.9,9.1c0.5,1.9,1.3,3.7,2.6,5.5c0.1,0.2,0.3,0.5,0.6,0.7l0.2,0.1h0.1l0.1,0l0-0.2c-0.4-1.1-0.6-2.2-0.7-3.3
	c-0.2-0.7-0.3-1.5-0.3-2.3c0.1-2.3,0.5-4.7,1.2-7.1c0.9-2.3,2.1-4.7,3.4-7c1.7-2,3.3-4,5-6c2.2-2.3,4.6-4.6,7.1-6.8
	c0.5,3.4,0.8,6.6,1.1,9.8c0,2.6-0.1,5.2,0,7.8c-0.5,2.7-1.1,5.2-1.9,7.6c-0.9,2.3-2.2,4.4-3.6,6.2c-0.5,0.6-1,1.1-1.7,1.5
	c-0.8,0.8-1.7,1.5-2.7,2l-0.1,0.1l0,0.1l0.1,0.1l0.2,0.1c0.3,0,0.6,0,0.9-0.2c2.1-0.6,3.9-1.4,5.5-2.5
	C79.8,182.2,82,180.1,83.6,177.4z"/>
<polyline class="st1" points="269.5,64.3 263.1,64.3 263.1,38.4 234.2,38.4 234.2,64.3 227.8,64.3 227.8,9.3 234.2,9.3 234.2,32.7 
	263.1,32.7 263.1,9.3 269.5,9.3 269.5,64.3 "/>
<path class="st1" d="M299.9,65.1c-6.1,0-10.9-1.9-14.4-5.6c-3.5-3.7-5.3-8.9-5.3-15.5c0-6.6,1.6-11.9,4.9-15.8
	c3.3-3.9,7.7-5.9,13.2-5.9c5.2,0,9.2,1.7,12.3,5.1c3,3.4,4.5,7.9,4.5,13.4v3.9h-28.4c0.1,4.8,1.3,8.5,3.7,11
	c2.3,2.5,5.6,3.8,9.8,3.8c4.4,0,8.8-0.9,13.2-2.8v5.6c-2.2,1-4.3,1.6-6.3,2C305.1,64.8,302.7,65.1,299.9,65.1 M298.2,27.6
	c-3.3,0-5.9,1.1-7.9,3.2c-2,2.2-3.1,5.1-3.5,8.9h21.5c0-3.9-0.9-6.9-2.6-9C304,28.6,301.5,27.6,298.2,27.6z"/>
<path class="st1" d="M349.9,64.3l-1.2-5.9h-0.3c-2.1,2.6-4.1,4.3-6.1,5.2c-2,0.9-4.6,1.4-7.7,1.4c-4.1,0-7.3-1.1-9.6-3.2
	c-2.3-2.1-3.5-5.1-3.5-9c0-8.3,6.7-12.7,20-13.1l7-0.2V37c0-3.2-0.7-5.6-2.1-7.2c-1.4-1.5-3.6-2.3-6.7-2.3c-3.4,0-7.3,1.1-11.7,3.2
	l-1.9-4.8c2-1.1,4.3-2,6.7-2.6c2.4-0.6,4.8-0.9,7.3-0.9c4.9,0,8.6,1.1,10.9,3.3s3.6,5.7,3.6,10.5v28.1H349.9 M335.8,59.9
	c3.9,0,6.9-1.1,9.2-3.2c2.2-2.1,3.3-5.1,3.3-8.9V44l-6.2,0.3c-5,0.2-8.5,0.9-10.7,2.3c-2.2,1.4-3.3,3.5-3.3,6.4c0,2.3,0.7,4,2,5.2
	C331.4,59.3,333.4,59.9,335.8,59.9z"/>
<rect x="366.2" y="5.8" class="st1" width="6.2" height="58.5"/>
<path class="st1" d="M397.9,59.9c1.1,0,2.2-0.1,3.2-0.2c1-0.2,1.8-0.3,2.4-0.5v4.8c-0.7,0.3-1.7,0.6-3,0.8c-1.3,0.2-2.5,0.3-3.6,0.3
	c-8,0-12-4.2-12-12.6V27.9h-5.9v-3l5.9-2.6l2.6-8.8h3.6v9.5h12v4.9h-12v24.3c0,2.5,0.6,4.4,1.8,5.7
	C394.2,59.2,395.8,59.9,397.9,59.9"/>
<path class="st1" d="M438.8,64.3V37.6c0-3.4-0.8-5.9-2.3-7.5c-1.5-1.7-3.9-2.5-7.2-2.5c-4.3,0-7.5,1.2-9.5,3.5c-2,2.4-3,6.2-3,11.6
	v21.5h-6.2V5.8h6.2v17.7c0,2.1-0.1,3.9-0.3,5.3h0.4c1.2-2,3-3.5,5.2-4.7c2.3-1.1,4.9-1.7,7.8-1.7c5,0,8.8,1.2,11.3,3.6
	c2.5,2.4,3.8,6.2,3.8,11.4v26.9H438.8"/>
<path class="st1" d="M253.3,82.3c-6,0-10.8,2-14.3,6c-3.5,4-5.2,9.5-5.2,16.5c0,7.2,1.7,12.8,5.1,16.7c3.4,3.9,8.2,5.9,14.4,5.9
	c3.8,0,8.2-0.7,13.1-2.1v5.6c-3.8,1.4-8.5,2.1-14.1,2.1c-8.1,0-14.3-2.5-18.7-7.4c-4.4-4.9-6.6-11.9-6.6-20.9
	c0-5.7,1.1-10.6,3.2-14.9c2.1-4.3,5.2-7.5,9.2-9.9c4-2.3,8.7-3.5,14.1-3.5c5.8,0,10.8,1.1,15.1,3.2l-2.7,5.5
	C261.7,83.2,257.5,82.3,253.3,82.3"/>
<path class="st1" d="M311.9,111.7c0,6.7-1.7,12-5.1,15.7c-3.4,3.8-8.1,5.7-14,5.7c-3.7,0-7-0.9-9.8-2.6c-2.9-1.7-5.1-4.2-6.6-7.4
	c-1.6-3.2-2.3-7-2.3-11.4c0-6.7,1.7-11.9,5-15.7c3.4-3.7,8-5.6,14-5.6c5.8,0,10.3,1.9,13.7,5.8C310.2,99.9,311.9,105.1,311.9,111.7
	 M280.5,111.7c0,5.3,1.1,9.3,3.2,12c2.1,2.8,5.2,4.1,9.3,4.1c4.1,0,7.2-1.4,9.3-4.1c2.1-2.7,3.2-6.8,3.2-12.1
	c0-5.2-1.1-9.2-3.2-11.9c-2.1-2.7-5.2-4.1-9.4-4.1c-4.1,0-7.2,1.3-9.2,4C281.5,102.4,280.5,106.3,280.5,111.7z"/>
<path class="st1" d="M347,132.3l-1.2-5.9h-0.3c-2.1,2.6-4.1,4.3-6.1,5.2c-2,0.9-4.6,1.4-7.7,1.4c-4.1,0-7.3-1.1-9.6-3.2
	c-2.3-2.1-3.5-5.1-3.5-9c0-8.3,6.7-12.7,20-13.1l7-0.2V105c0-3.2-0.7-5.6-2.1-7.2c-1.4-1.5-3.6-2.3-6.7-2.3c-3.4,0-7.3,1.1-11.7,3.2
	l-1.9-4.8c2-1.1,4.3-2,6.7-2.6c2.4-0.6,4.8-0.9,7.3-0.9c4.9,0,8.6,1.1,10.9,3.3c2.4,2.2,3.6,5.7,3.6,10.5v28.1H347 M332.9,127.9
	c3.9,0,6.9-1.1,9.2-3.2c2.2-2.1,3.3-5.1,3.3-8.9V112l-6.2,0.3c-5,0.2-8.5,0.9-10.7,2.3c-2.2,1.4-3.3,3.5-3.3,6.4c0,2.3,0.7,4,2,5.2
	C328.5,127.3,330.4,127.9,332.9,127.9z"/>
<path class="st1" d="M379.8,133.1c-6,0-10.6-1.8-13.9-5.5c-3.3-3.7-4.9-8.9-4.9-15.6c0-6.9,1.7-12.2,5-16c3.3-3.8,8.1-5.6,14.2-5.6
	c2,0,4,0.2,5.9,0.6c2,0.4,3.5,0.9,4.7,1.5l-1.9,5.3c-1.4-0.6-2.9-1-4.5-1.4c-1.6-0.4-3.1-0.5-4.3-0.5c-8.4,0-12.6,5.3-12.6,16
	c0,5.1,1,9,3.1,11.7s5.1,4.1,9.1,4.1c3.4,0,7-0.7,10.6-2.2v5.5C387.4,132.3,384,133.1,379.8,133.1"/>
<path class="st1" d="M427,132.3v-26.7c0-3.4-0.8-5.9-2.3-7.5c-1.5-1.7-3.9-2.5-7.2-2.5c-4.3,0-7.5,1.2-9.5,3.5c-2,2.4-3,6.2-3,11.6
	v21.5h-6.2V73.8h6.2v17.7c0,2.1-0.1,3.9-0.3,5.3h0.4c1.2-2,3-3.5,5.2-4.7c2.3-1.1,4.9-1.7,7.8-1.7c5,0,8.8,1.2,11.3,3.6
	c2.5,2.4,3.8,6.2,3.8,11.4v26.9H427"/>
<path class="st1" d="M462.3,133.1c-6.1,0-10.9-1.9-14.4-5.6c-3.5-3.7-5.3-8.9-5.3-15.5c0-6.6,1.6-11.9,4.9-15.8
	c3.3-3.9,7.7-5.9,13.2-5.9c5.2,0,9.2,1.7,12.3,5.1c3,3.4,4.5,7.9,4.5,13.4v3.9h-28.4c0.1,4.8,1.3,8.5,3.7,11s5.6,3.8,9.8,3.8
	c4.4,0,8.8-0.9,13.2-2.8v5.6c-2.2,1-4.3,1.6-6.3,2C467.5,132.8,465.1,133.1,462.3,133.1 M460.6,95.6c-3.3,0-5.9,1.1-7.9,3.2
	c-2,2.2-3.1,5.1-3.5,9h21.5c0-3.9-0.9-7-2.6-9C466.4,96.6,463.9,95.6,460.6,95.6z"/>
<path class="st1" d="M513.5,121.1c0,3.8-1.4,6.8-4.3,8.9c-2.9,2.1-6.9,3.1-12,3.1c-5.5,0-9.7-0.9-12.8-2.6v-5.8c2,1,4.1,1.8,6.4,2.4
	c2.3,0.6,4.5,0.9,6.6,0.9c3.3,0,5.8-0.5,7.5-1.6s2.6-2.6,2.6-4.8c0-1.6-0.7-3-2.1-4.1c-1.4-1.1-4.1-2.5-8.1-4
	c-3.8-1.4-6.6-2.7-8.2-3.7c-1.6-1.1-2.8-2.3-3.6-3.6c-0.8-1.4-1.2-3-1.2-4.8c0-3.4,1.4-6,4.1-8c2.7-1.9,6.5-2.9,11.2-2.9
	c4.4,0,8.8,0.9,13,2.7l-2.2,5.1c-4.1-1.7-7.9-2.6-11.2-2.6c-3,0-5.2,0.5-6.7,1.4c-1.5,0.9-2.3,2.2-2.3,3.8c0,1.1,0.3,2,0.8,2.8
	c0.6,0.8,1.5,1.5,2.7,2.2c1.3,0.7,3.7,1.7,7.2,3c4.9,1.8,8.2,3.6,9.9,5.4C512.7,116.1,513.5,118.3,513.5,121.1"/>
<path class="st2" d="M237.8,168.3l-1-3.4h-5.2l-1,3.4h-3.3l5-14.3h3.7l5.1,14.3H237.8 M236,162.4c-1-3.1-1.5-4.8-1.6-5.2
	c-0.1-0.4-0.2-0.7-0.3-1c-0.2,0.8-0.8,2.9-1.8,6.2H236z"/>
<path class="st2" d="M254.9,154v9.2c0,1.1-0.2,2-0.7,2.8c-0.5,0.8-1.2,1.4-2,1.8c-0.9,0.4-1.9,0.6-3.2,0.6c-1.8,0-3.3-0.5-4.3-1.4
	c-1-0.9-1.5-2.2-1.5-3.9V154h3v8.7c0,1.1,0.2,1.9,0.7,2.4c0.4,0.5,1.2,0.8,2.2,0.8c1,0,1.7-0.3,2.2-0.8c0.4-0.5,0.7-1.3,0.7-2.4V154
	H254.9"/>
<path class="st2" d="M267.2,164.3c0,1.3-0.5,2.3-1.4,3c-0.9,0.7-2.2,1.1-3.9,1.1c-1.5,0-2.9-0.3-4-0.9v-2.8c1,0.4,1.8,0.7,2.4,0.9
	c0.7,0.2,1.3,0.3,1.8,0.3c0.7,0,1.2-0.1,1.5-0.4c0.4-0.3,0.5-0.6,0.5-1.1c0-0.3-0.1-0.5-0.2-0.7c-0.2-0.2-0.4-0.4-0.7-0.6
	c-0.3-0.2-0.9-0.5-1.9-1c-0.9-0.4-1.5-0.8-2-1.2c-0.4-0.4-0.8-0.8-1-1.3c-0.3-0.5-0.4-1.1-0.4-1.8c0-1.3,0.4-2.3,1.3-3
	c0.9-0.7,2-1.1,3.6-1.1c0.7,0,1.4,0.1,2.1,0.3c0.7,0.2,1.4,0.4,2.1,0.7l-1,2.4c-0.8-0.3-1.4-0.5-1.9-0.7c-0.5-0.1-1-0.2-1.5-0.2
	c-0.6,0-1,0.1-1.3,0.4c-0.3,0.3-0.5,0.6-0.5,1c0,0.3,0.1,0.5,0.2,0.7c0.1,0.2,0.3,0.4,0.6,0.6c0.3,0.2,0.9,0.5,1.9,1
	c1.3,0.6,2.2,1.3,2.7,1.9C266.9,162.6,267.2,163.4,267.2,164.3"/>
<polyline class="st2" points="275.7,168.3 272.7,168.3 272.7,156.5 268.8,156.5 268.8,154 279.6,154 279.6,156.5 275.7,156.5 
	275.7,168.3 "/>
<path class="st2" d="M285.2,162.8v5.5h-3V154h4.2c1.9,0,3.4,0.4,4.3,1.1s1.4,1.8,1.4,3.2c0,0.8-0.2,1.6-0.7,2.2
	c-0.5,0.7-1.1,1.2-2,1.5c2.1,3.2,3.5,5.3,4.2,6.2h-3.4l-3.4-5.5H285.2 M285.2,160.4h1c1,0,1.7-0.2,2.1-0.5c0.5-0.3,0.7-0.8,0.7-1.5
	c0-0.7-0.2-1.2-0.7-1.4c-0.5-0.3-1.2-0.4-2.2-0.4h-0.9V160.4z"/>
<path class="st2" d="M304.5,168.3l-1-3.4h-5.2l-1,3.4H294l5-14.3h3.7l5.1,14.3H304.5 M302.7,162.4c-1-3.1-1.5-4.8-1.6-5.2
	c-0.1-0.4-0.2-0.7-0.3-1c-0.2,0.8-0.8,2.9-1.8,6.2H302.7z"/>
<polyline class="st2" points="310,168.3 310,154 313,154 313,165.8 318.8,165.8 318.8,168.3 310,168.3 "/>
<rect x="321.7" y="154" class="st2" width="3" height="14.3"/>
<path class="st2" d="M337.4,168.3l-1-3.4h-5.2l-1,3.4h-3.3l5-14.3h3.7l5.1,14.3H337.4 M335.7,162.4c-1-3.1-1.5-4.8-1.6-5.2
	c-0.1-0.4-0.2-0.7-0.3-1c-0.2,0.8-0.8,2.9-1.8,6.2H335.7z"/>
<path class="st2" d="M361.5,168.3h-3.7l-1.1-1.1c-1.2,0.9-2.7,1.3-4.2,1.3c-1.6,0-2.8-0.4-3.8-1.1c-0.9-0.7-1.4-1.7-1.4-3
	c0-0.9,0.2-1.7,0.6-2.3c0.4-0.6,1.1-1.2,2-1.8c-0.5-0.6-0.8-1.1-1.1-1.6c-0.2-0.5-0.3-1.1-0.3-1.7c0-1,0.4-1.8,1.1-2.4
	c0.8-0.6,1.8-0.9,3-0.9c1.2,0,2.2,0.3,2.9,0.8c0.7,0.6,1.1,1.3,1.1,2.3c0,0.8-0.2,1.5-0.7,2.1c-0.4,0.6-1.2,1.3-2.2,1.8l2.8,2.7
	c0.5-0.8,0.9-1.7,1.2-2.9h3.1c-0.2,0.9-0.6,1.7-1,2.6c-0.4,0.8-0.9,1.6-1.4,2.2L361.5,168.3 M350.5,164.2c0,0.6,0.2,1,0.6,1.3
	c0.4,0.3,1,0.5,1.6,0.5c0.8,0,1.6-0.2,2.2-0.6l-3.2-3.2c-0.4,0.3-0.7,0.6-0.9,0.9C350.6,163.4,350.5,163.8,350.5,164.2z M354,157.2
	c0-0.3-0.1-0.6-0.4-0.8c-0.2-0.2-0.5-0.3-0.9-0.3c-0.4,0-0.8,0.1-1,0.3c-0.3,0.2-0.4,0.5-0.4,0.9c0,0.6,0.3,1.2,0.9,1.9
	c0.6-0.3,1-0.6,1.3-0.9C353.8,158,354,157.6,354,157.2z"/>
<path class="st2" d="M381.8,168.3H378l-6.2-10.8h-0.1c0.1,1.9,0.2,3.3,0.2,4.1v6.7h-2.7V154h3.8l6.2,10.7h0.1
	c-0.1-1.9-0.1-3.2-0.1-3.9V154h2.7V168.3"/>
<polyline class="st2" points="394.1,168.3 385.8,168.3 385.8,154 394.1,154 394.1,156.5 388.9,156.5 388.9,159.6 393.7,159.6 
	393.7,162.1 388.9,162.1 388.9,165.8 394.1,165.8 394.1,168.3 "/>
<path class="st2" d="M411.3,168.3h-3.4l-1.9-7.5c-0.1-0.3-0.2-0.8-0.4-1.7c-0.2-0.8-0.3-1.4-0.3-1.7c0,0.4-0.1,0.9-0.3,1.7
	c-0.2,0.8-0.3,1.3-0.4,1.7l-1.9,7.5h-3.4l-3.6-14.3h3l1.8,7.8c0.3,1.4,0.5,2.7,0.7,3.7c0-0.4,0.1-0.9,0.3-1.7
	c0.1-0.8,0.3-1.4,0.4-1.8l2.1-8h2.9l2.1,8c0.1,0.4,0.2,0.9,0.3,1.6c0.1,0.7,0.2,1.4,0.3,1.9c0.1-0.5,0.2-1.1,0.3-1.9
	c0.1-0.8,0.3-1.4,0.4-1.8l1.8-7.8h3L411.3,168.3"/>
<polyline class="st2" points="431.9,168.3 421.3,168.3 421.3,166.3 428.2,156.5 421.5,156.5 421.5,154 431.7,154 431.7,156 
	424.9,165.8 431.9,165.8 431.9,168.3 "/>
<polyline class="st2" points="442.8,168.3 434.6,168.3 434.6,154 442.8,154 442.8,156.5 437.6,156.5 437.6,159.6 442.5,159.6 
	442.5,162.1 437.6,162.1 437.6,165.8 442.8,165.8 442.8,168.3 "/>
<path class="st2" d="M454.9,168.3l-1-3.4h-5.2l-1,3.4h-3.3l5-14.3h3.7l5.1,14.3H454.9 M453.2,162.4c-1-3.1-1.5-4.8-1.6-5.2
	c-0.1-0.4-0.2-0.7-0.3-1c-0.2,0.8-0.8,2.9-1.8,6.2H453.2z"/>
<polyline class="st2" points="460.4,168.3 460.4,154 463.4,154 463.4,165.8 469.2,165.8 469.2,168.3 460.4,168.3 "/>
<path class="st2" d="M480.8,168.3l-1-3.4h-5.2l-1,3.4h-3.3l5-14.3h3.7l5.1,14.3H480.8 M479.1,162.4c-1-3.1-1.5-4.8-1.6-5.2
	c-0.1-0.4-0.2-0.7-0.3-1c-0.2,0.8-0.8,2.9-1.8,6.2H479.1z"/>
<path class="st2" d="M499,168.3h-3.8l-6.2-10.8h-0.1c0.1,1.9,0.2,3.3,0.2,4.1v6.7h-2.7V154h3.8l6.2,10.7h0.1
	c-0.1-1.9-0.1-3.2-0.1-3.9V154h2.7V168.3"/>
<path class="st2" d="M514.8,161c0,2.4-0.7,4.1-2,5.4c-1.3,1.2-3.3,1.9-5.8,1.9h-4V154h4.5c2.3,0,4.1,0.6,5.4,1.8
	C514.2,157.1,514.8,158.8,514.8,161 M511.7,161.1c0-3.1-1.4-4.6-4.1-4.6H506v9.3h1.3C510.2,165.8,511.7,164.2,511.7,161.1z"/>
<path class="st2" d="M237.1,189.9l-1.6-4.1h-5.1l-1.6,4.1h-1.5l5.1-12.9h1.3l5.1,12.9H237.1 M235,184.5l-1.5-4
	c-0.2-0.5-0.4-1.1-0.6-1.9c-0.1,0.6-0.3,1.2-0.6,1.9l-1.5,4H235z"/>
<path class="st2" d="M248.1,186.5c0,1.1-0.4,2-1.2,2.6c-0.8,0.6-1.9,0.9-3.3,0.9c-1.5,0-2.7-0.2-3.5-0.6V188
	c0.5,0.2,1.1,0.4,1.7,0.5c0.6,0.1,1.2,0.2,1.8,0.2c1,0,1.7-0.2,2.2-0.6c0.5-0.4,0.8-0.9,0.8-1.6c0-0.4-0.1-0.8-0.3-1.1
	c-0.2-0.3-0.5-0.5-0.9-0.8c-0.4-0.2-1.1-0.5-1.9-0.8c-1.2-0.4-2-0.9-2.6-1.5c-0.5-0.6-0.8-1.4-0.8-2.3c0-1,0.4-1.8,1.1-2.4
	s1.7-0.9,3-0.9c1.3,0,2.5,0.2,3.5,0.7l-0.5,1.3c-1.1-0.4-2.1-0.7-3.1-0.7c-0.8,0-1.4,0.2-1.9,0.5c-0.4,0.3-0.7,0.8-0.7,1.4
	c0,0.4,0.1,0.8,0.2,1.1c0.2,0.3,0.4,0.5,0.8,0.8c0.4,0.2,1,0.5,1.8,0.8c1.3,0.5,2.3,1,2.8,1.5C247.9,184.9,248.1,185.6,248.1,186.5"
	/>
<path class="st2" d="M258.4,186.5c0,1.1-0.4,2-1.2,2.6c-0.8,0.6-1.9,0.9-3.3,0.9c-1.5,0-2.7-0.2-3.5-0.6V188
	c0.5,0.2,1.1,0.4,1.7,0.5c0.6,0.1,1.2,0.2,1.8,0.2c1,0,1.7-0.2,2.2-0.6c0.5-0.4,0.8-0.9,0.8-1.6c0-0.4-0.1-0.8-0.3-1.1
	c-0.2-0.3-0.5-0.5-0.9-0.8c-0.4-0.2-1.1-0.5-1.9-0.8c-1.2-0.4-2-0.9-2.6-1.5c-0.5-0.6-0.8-1.4-0.8-2.3c0-1,0.4-1.8,1.1-2.4
	s1.7-0.9,3-0.9c1.3,0,2.5,0.2,3.5,0.7l-0.5,1.3c-1.1-0.4-2.1-0.7-3.1-0.7c-0.8,0-1.4,0.2-1.9,0.5c-0.4,0.3-0.7,0.8-0.7,1.4
	c0,0.4,0.1,0.8,0.2,1.1c0.2,0.3,0.4,0.5,0.8,0.8c0.4,0.2,1,0.5,1.8,0.8c1.3,0.5,2.3,1,2.8,1.5C258.2,184.9,258.4,185.6,258.4,186.5"
	/>
<path class="st2" d="M272.7,183.5c0,2.1-0.5,3.7-1.6,4.9s-2.5,1.8-4.3,1.8c-1.9,0-3.4-0.6-4.4-1.7c-1-1.2-1.5-2.8-1.5-4.9
	c0-2.1,0.5-3.7,1.5-4.9c1-1.2,2.5-1.7,4.4-1.7c1.8,0,3.3,0.6,4.3,1.8C272.1,179.8,272.7,181.4,272.7,183.5 M262.4,183.5
	c0,1.7,0.4,3.1,1.1,4c0.7,0.9,1.8,1.3,3.2,1.3c1.4,0,2.5-0.4,3.2-1.3c0.7-0.9,1.1-2.2,1.1-4c0-1.7-0.4-3-1.1-3.9s-1.8-1.3-3.2-1.3
	c-1.4,0-2.5,0.4-3.2,1.3C262.8,180.4,262.4,181.7,262.4,183.5z"/>
<path class="st2" d="M281.5,178.2c-1.4,0-2.5,0.5-3.3,1.4c-0.8,0.9-1.2,2.2-1.2,3.9c0,1.7,0.4,3,1.2,3.9c0.8,0.9,1.9,1.4,3.4,1.4
	c0.9,0,1.9-0.2,3.1-0.5v1.3c-0.9,0.3-2,0.5-3.3,0.5c-1.9,0-3.4-0.6-4.4-1.7c-1-1.1-1.5-2.8-1.5-4.9c0-1.3,0.2-2.5,0.7-3.5
	c0.5-1,1.2-1.8,2.1-2.3c0.9-0.5,2-0.8,3.3-0.8c1.3,0,2.5,0.2,3.5,0.7l-0.6,1.3C283.4,178.4,282.5,178.2,281.5,178.2"/>
<rect x="287.8" y="177.1" class="st2" width="1.5" height="12.8"/>
<path class="st2" d="M301.3,189.9l-1.6-4.1h-5.2l-1.6,4.1h-1.5l5.1-12.9h1.3l5.1,12.9H301.3 M299.3,184.5l-1.5-4
	c-0.2-0.5-0.4-1.1-0.6-1.9c-0.1,0.6-0.3,1.2-0.6,1.9l-1.5,4H299.3z"/>
<polyline class="st2" points="309.1,189.9 307.6,189.9 307.6,178.4 303.5,178.4 303.5,177.1 313.1,177.1 313.1,178.4 309.1,178.4 
	309.1,189.9 "/>
<rect x="315.5" y="177.1" class="st2" width="1.5" height="12.8"/>
<path class="st2" d="M332.1,183.5c0,2.1-0.5,3.7-1.6,4.9c-1,1.2-2.5,1.8-4.3,1.8c-1.9,0-3.4-0.6-4.4-1.7c-1-1.2-1.5-2.8-1.5-4.9
	c0-2.1,0.5-3.7,1.5-4.9c1-1.2,2.5-1.7,4.4-1.7c1.8,0,3.3,0.6,4.3,1.8C331.6,179.8,332.1,181.4,332.1,183.5 M321.9,183.5
	c0,1.7,0.4,3.1,1.1,4c0.7,0.9,1.8,1.3,3.2,1.3c1.4,0,2.5-0.4,3.2-1.3c0.7-0.9,1.1-2.2,1.1-4c0-1.7-0.4-3-1.1-3.9s-1.8-1.3-3.2-1.3
	c-1.4,0-2.5,0.4-3.2,1.3C322.3,180.4,321.9,181.7,321.9,183.5z"/>
<path class="st2" d="M345.5,189.9h-1.7l-7-10.8h-0.1c0.1,1.3,0.1,2.4,0.1,3.5v7.3h-1.4v-12.9h1.7l7,10.7h0.1c0-0.2,0-0.7-0.1-1.5
	c0-0.9-0.1-1.5,0-1.8v-7.4h1.4V189.9"/>
</svg>
